<svg id="Layer_1" data-name="Layer 1" xmlns="http://www.w3.org/2000/svg" viewBox="0 0 104.47 18.49"><defs><style>.cls-1{fill:#ffce03;}</style></defs><title>5star</title><polygon class="cls-1" points="15.78 18.39 9.76 15.29 3.8 18.49 4.89 11.81 0 7.12 6.69 6.1 9.64 0 12.69 6.05 19.39 6.96 14.58 11.73 15.78 18.39"/><polygon class="cls-1" points="37.05 18.39 31.03 15.29 25.07 18.49 26.16 11.81 21.27 7.12 27.96 6.1 30.91 0 33.95 6.05 40.66 6.96 35.85 11.73 37.05 18.39"/><polygon class="cls-1" points="58.32 18.39 52.3 15.29 46.34 18.49 47.43 11.81 42.54 7.12 49.23 6.1 52.18 0 55.22 6.05 61.93 6.96 57.12 11.73 58.32 18.39"/><polygon class="cls-1" points="79.59 18.39 73.57 15.29 67.61 18.49 68.7 11.81 63.81 7.12 70.5 6.1 73.45 0 76.49 6.05 83.2 6.96 78.39 11.73 79.59 18.39"/><polygon class="cls-1" points="100.86 18.39 94.84 15.29 88.88 18.49 89.97 11.81 85.08 7.12 91.77 6.1 94.72 0 97.76 6.05 104.47 6.96 99.66 11.73 100.86 18.39"/></svg>